<?xml version="1.0" encoding="UTF-8" standalone="no"?>
<!-- Uploaded to: SVG Repo, www.svgrepo.com, Generator: SVG Repo Mixer Tools -->

<svg
   fill="#000000"
   height="153.5316"
   width="610.26361"
   version="1.1"
   id="Capa_1"
   viewBox="0 0 252.82916 63.607375"
   xml:space="preserve"
   sodipodi:docname="palm-tree-logo.svg"
   inkscape:version="1.3 (0e150ed6c4, 2023-07-21)"
   xmlns:inkscape="http://www.inkscape.org/namespaces/inkscape"
   xmlns:sodipodi="http://sodipodi.sourceforge.net/DTD/sodipodi-0.dtd"
   xmlns="http://www.w3.org/2000/svg"
   xmlns:svg="http://www.w3.org/2000/svg"><defs
   id="defs1" /><sodipodi:namedview
   id="namedview1"
   pagecolor="#ffffff"
   bordercolor="#000000"
   borderopacity="0.25"
   inkscape:showpageshadow="2"
   inkscape:pageopacity="0.0"
   inkscape:pagecheckerboard="0"
   inkscape:deskcolor="#d1d1d1"
   inkscape:zoom="0.99875"
   inkscape:cx="306.38298"
   inkscape:cy="229.78723"
   inkscape:window-width="1920"
   inkscape:window-height="1013"
   inkscape:window-x="-9"
   inkscape:window-y="-9"
   inkscape:window-maximized="1"
   inkscape:current-layer="Capa_1" />&#10;<path
   d="m 42.557178,13.337148 c -3.051219,0.230187 -6.127019,0.953455 -8.955782,2.135188 2.251233,-0.0928 4.542792,0.264051 6.664789,1.026743 1.850388,0.665108 3.617689,1.67482 5.01397,3.094771 0.843319,0.857597 1.440171,1.811438 1.976062,2.885825 0.0069,0.01261 0.01615,0.03079 0.02928,0.0597 0.09285,0.235729 0.662128,1.317774 0.04182,1.290408 -0.150811,-0.0065 -0.327691,-0.129728 -0.457862,-0.190764 -0.582787,-0.273812 -1.162946,-0.54954 -1.756797,-0.79809 -1.238722,-0.51873 -2.489073,-0.969531 -3.767374,-1.373456 -1.979436,-0.625691 -4.077987,-1.010478 -6.141648,-1.165848 4.868607,1.927774 9.819364,6.465076 10.129797,12.1068 0.03507,0.6387 0.0048,1.281041 -0.09491,1.912849 -0.04461,0.283379 -0.334063,0.465732 -0.602293,0.380584 -0.297863,-0.09453 -0.512258,-0.530786 -0.697389,-0.765946 -0.867142,-1.100793 -1.785679,-2.160066 -2.763863,-3.159447 -1.874962,-1.915718 -3.973326,-3.59857 -6.270138,-4.957677 1.783055,2.372073 3.069796,5.219054 3.517713,8.181989 0.412472,2.728733 0.07409,5.670619 -1.484249,7.989308 -0.177069,0.263476 -0.380586,0.647693 -0.755915,0.551449 -0.340823,-0.08725 -0.356017,-0.438365 -0.405535,-0.729782 -0.114233,-0.673525 -0.243281,-1.34437 -0.388835,-2.011388 -0.289234,-1.326006 -0.644311,-2.637462 -1.077976,-3.921942 -0.839007,-2.486306 -1.990319,-4.808435 -3.394668,-6.961607 -0.01312,0.247021 -0.105227,0.469935 -0.28567,0.616503 -0.39615,0.321837 -1.048521,0.159003 -1.456304,-0.36336 -0.407968,-0.522363 -0.417158,-1.207369 -0.02082,-1.529206 0.218146,-0.177184 0.513946,-0.207035 0.803745,-0.111365 -0.197701,-0.271703 -0.399339,-0.540158 -0.605107,-0.805933 0.01388,0.439516 -0.177066,0.825837 -0.520135,0.964558 -0.470992,0.190384 -1.048524,-0.15824 -1.290117,-0.779337 -0.241217,-0.621096 -0.05496,-1.279121 0.416222,-1.46989 0.09866,-0.03997 0.202015,-0.05473 0.306116,-0.04973 -0.670756,-0.78221 -1.376962,-1.536479 -2.115243,-2.262817 -0.05065,0.127819 -0.103727,0.265395 -0.162624,0.410429 -0.04933,0.123226 -0.101101,0.253339 -0.155498,0.389385 -0.05064,0.140635 -0.09904,0.292942 -0.15212,0.448312 -0.05251,0.15556 -0.107103,0.317628 -0.16375,0.48563 -0.02814,0.08381 -0.05684,0.169147 -0.08609,0.256013 -0.02607,0.09012 -0.05233,0.181777 -0.07916,0.274768 -0.06828,0.245112 -0.144618,0.496536 -0.219271,0.759437 0.114605,-0.01683 0.23015,-0.0094 0.341755,0.02869 0.480558,0.164362 0.701518,0.810721 0.493501,1.444254 -0.208018,0.633342 -0.765855,1.014111 -1.246788,0.849748 -0.04971,-0.01704 -0.09585,-0.04018 -0.139741,-0.06697 -0.07109,0.322988 -0.143304,0.650947 -0.210455,0.993834 -0.09585,0.519878 -0.205954,1.04894 -0.298988,1.604402 -0.190573,1.108066 -0.372893,2.283101 -0.533641,3.50884 -0.07916,0.613439 -0.163188,1.234156 -0.231839,1.869988 -0.07428,0.632958 -0.145743,1.274337 -0.208016,1.92452 -0.06828,0.647504 -0.127737,1.303423 -0.184571,1.962214 -0.06134,0.656684 -0.109729,1.321028 -0.161687,1.982882 -0.101288,1.325042 -0.183631,2.654107 -0.258473,3.962505 -0.0694,1.309931 -0.130737,2.599382 -0.17763,3.848847 -0.0951,2.498933 -0.146493,4.834071 -0.171627,6.833599 -0.01575,1.238558 -0.02082,2.34853 -0.02045,3.289178 0.565715,0.06429 1.129556,0.142353 1.690019,0.237647 1.552528,0.263674 3.0848,0.653813 4.568678,1.190728 0.676945,0.244718 1.343763,0.520442 1.992386,0.835388 0.262226,0.127439 1.421977,0.563129 1.421977,0.89185 0,0.03637 0.01182,0.107914 0.0124,0.170292 H 5.343193 c -0.0017,-0.101983 0.0032,-0.240325 0.0032,-0.26941 1.749104,-1.161635 3.808263,-1.909782 5.883742,-2.405165 0.0036,-0.02201 0.0071,-0.043 0.01088,-0.06544 0.205766,-1.201255 0.507568,-2.906305 0.898092,-4.943339 0.390149,-2.03722 0.867142,-4.407375 1.419353,-6.939217 0.275355,-1.26572 0.573219,-2.572208 0.883275,-3.897635 0.315494,-1.325622 0.642619,-2.669992 0.989813,-4.012259 0.175005,-0.671036 0.345882,-1.341501 0.530265,-2.008708 0.179507,-0.667023 0.361451,-1.330981 0.551835,-1.989005 0.18382,-0.657645 0.376831,-1.309932 0.571343,-1.953222 0.188322,-0.643294 0.392211,-1.278167 0.588974,-1.901563 0.395964,-1.246782 0.808433,-2.448413 1.219777,-3.583266 0.202953,-0.567518 0.423537,-1.118392 0.624051,-1.649753 0.207079,-0.53174 0.427288,-1.043772 0.627426,-1.53418 0.207267,-0.490414 0.426913,-0.959009 0.624238,-1.402922 0.201077,-0.444299 0.421098,-0.863529 0.612046,-1.256544 0.04877,-0.09816 0.0966,-0.194598 0.14368,-0.289692 0.05195,-0.09453 0.102789,-0.187516 0.15287,-0.278982 0.100351,-0.182346 0.197137,-0.358001 0.290173,-0.526762 0.09378,-0.168191 0.180069,-0.329494 0.269353,-0.48314 0.09529,-0.153076 0.185883,-0.298874 0.272165,-0.437411 0.01857,-0.02927 0.03563,-0.05683 0.05365,-0.08553 -0.842571,0.09758 -1.682517,0.211818 -2.517397,0.370247 -0.718211,0.136426 -1.438298,0.285288 -2.15182,0.460368 0.558964,0.04515 1.002758,0.402586 1.028267,0.862954 0.0287,0.51586 -0.477932,0.965512 -1.131618,1.00359 -0.654062,0.03807 -1.20721,-0.349964 -1.236284,-0.866203 -0.01632,-0.293902 0.14143,-0.5658 0.400841,-0.752935 -0.331627,0.09471 -0.661002,0.196317 -0.987189,0.306912 -0.229212,0.07769 -0.453923,0.161879 -0.680322,0.244157 0.609045,0.109065 1.045524,0.571153 0.986438,1.063481 -0.06171,0.51337 -0.638868,0.863333 -1.28899,0.781629 -0.649748,-0.0817 -1.126742,-0.56312 -1.065031,-1.07668 0.012,-0.09892 0.04352,-0.191919 0.09079,-0.276872 -2.343706,0.959388 -4.544294,2.167333 -6.634965,3.660761 -1.475625,1.053914 -2.825952,2.267976 -4.154896,3.504816 -0.621987,0.57881 -0.476244,-0.946572 -0.460487,-1.163938 0.07447,-0.472994 0.144242,-0.935661 0.260162,-1.399858 0.264475,-1.008569 0.688199,-1.965852 1.238721,-2.846791 2.401852,-3.844833 6.768703,-6.328075 11.11811,-7.114489 -3.304446,-0.526767 -6.620522,-0.464197 -9.919341,0.04209 -1.598296,0.245492 -3.163768,0.6431 -4.72398702,1.064246 -0.237653,0.0641 -0.830753,0.09701 -0.578282,-0.348054 0.32975,-0.577471 0.65256,-1.163744 1.08847602,-1.668123 0.692701,-0.801339 1.447677,-1.496297 2.336203,-2.073383 3.815766,-2.478459 8.931402,-2.713429 13.206155,-1.436792 C 15.291066,12.765412 13.697084,11.699637 12.008003,10.833238 10.40633,10.011806 8.766018,9.2998243 7.07206,8.6990053 6.833281,8.6142453 6.430754,8.5579853 6.234366,8.3771683 5.731488,7.9135463 7.242563,7.4434163 7.494283,7.3481313 8.200115,7.0810173 8.978912,6.8693893 9.734262,6.8219393 14.240291,6.5385603 18.627775,8.7055143 21.72758,11.979378 19.841178,8.3069503 17.314028,5.1193783 14.28081,2.3686413 13.821259,1.9515143 13.356457,1.5464433 12.883215,1.1453923 12.717027,1.0045623 12.380148,0.80805526 12.275108,0.60102126 c -0.301239,-0.593736 1.253728,-0.500551 1.511638,-0.500936 2.523399,-0.0055 4.925814,1.10691704 6.875057,2.69142604 3.483765,2.832056 5.853542,7.165957 6.398062,11.6648017 3.710352,-3.924432 9.840938,-5.8948787 15.071738,-4.8172377 1.128618,0.232481 2.195525,0.6645327 3.198096,1.2330117 0.347383,0.197271 0.692325,0.434156 1.00313,0.68845 0.286047,0.23401 1.45968,1.059077 1.279424,1.494193 -0.166939,0.402391 -1.470556,0.15824 -1.808188,0.152116 -1.081534,-0.01989 -2.168327,0.04878 -3.246862,0.130304 z M 27.477187,25.354211 c 0,-0.668171 -0.410782,-1.209668 -0.9176,-1.209668 -0.506818,0 -0.917599,0.541497 -0.917599,1.209668 0,0.668167 0.410781,1.209665 0.917599,1.209665 0.506818,0 0.9176,-0.541693 0.9176,-1.209665 z m -0.649748,3.911037 c 0.506818,0 0.917788,-0.541692 0.917788,-1.209668 0,-0.668167 -0.41097,-1.209664 -0.917788,-1.209664 -0.506817,0 -0.917787,0.541497 -0.917787,1.209664 0,0.667976 0.41097,1.209668 0.917787,1.209668 z m 1.593044,1.727818 c 0.50288,-0.06371 0.845198,-0.652855 0.764354,-1.315859 -0.08084,-0.663004 -0.553899,-1.148818 -1.056777,-1.085104 -0.50288,0.06372 -0.845198,0.652861 -0.764354,1.31586 0.08084,0.663193 0.553899,1.149013 1.056777,1.085103 z m -1.446738,1.439276 c 0.503255,-0.06391 0.845384,-0.653242 0.764542,-1.31605 -0.08084,-0.662808 -0.554462,-1.148438 -1.057154,-1.085103 -0.502691,0.06372 -0.845196,0.653241 -0.763978,1.316819 0.08066,0.662429 0.55371,1.148244 1.05659,1.084334 z m -2.484009,-3.089983 c -0.315308,0.585313 -0.21083,1.261712 0.233152,1.510837 0.444544,0.248936 1.060341,-0.02389 1.375461,-0.609425 0.315308,-0.586083 0.210831,-1.262477 -0.233151,-1.511028 -0.444732,-0.24894 -1.06053,0.02352 -1.375462,0.609616 z m -3.884604,-5.434121 c 0.608294,-0.24779 0.948924,-0.837697 0.760602,-1.317969 -0.187759,-0.480266 -0.83338,-0.668166 -1.441674,-0.420376 -0.608107,0.247786 -0.94855,0.837888 -0.760603,1.317775 0.187759,0.480456 0.83338,0.668741 1.441675,0.42057 z m -2.029899,2.054059 c 0.348321,0.375795 1.01645,0.308057 1.492319,-0.150971 0.475869,-0.459029 0.579408,-1.135808 0.231087,-1.511603 -0.34832,-0.375794 -1.016448,-0.308061 -1.492318,0.150967 -0.475869,0.459033 -0.579408,1.135807 -0.231088,1.511607 z M 16.76742,24.404195 c -0.608108,0.247596 -0.948925,0.838272 -0.760603,1.317584 0.187947,0.480652 0.83338,0.668932 1.441675,0.421337 0.608294,-0.247792 0.948923,-0.838464 0.76079,-1.31835 -0.188135,-0.479887 -0.833756,-0.668357 -1.441862,-0.420571 z m 1.095042,2.530502 c -0.324311,0.580341 -0.230338,1.258649 0.210079,1.514667 0.440419,0.256208 1.060342,-0.0069 1.384653,-0.587233 0.324311,-0.58034 0.230338,-1.258648 -0.21008,-1.514661 -0.44023,-0.256208 -1.060153,0.0067 -1.384652,0.587227 z m -1.830698,-0.182731 c -0.573781,0.322602 -0.84032,0.951356 -0.595539,1.404261 0.244781,0.452906 0.908221,0.558527 1.482002,0.235735 0.573593,-0.322607 0.84032,-0.951356 0.59554,-1.404262 -0.244969,-0.45291 -0.90841,-0.558337 -1.482003,-0.235734 z m -1.647815,-1.120118 c -0.573406,0.322602 -0.839757,0.951162 -0.594976,1.403877 0.24478,0.452715 0.908033,0.558337 1.481439,0.235735 0.573406,-0.322603 0.839757,-0.951162 0.594977,-1.403877 -0.244781,-0.452715 -0.908033,-0.558337 -1.48144,-0.235735 z"
   id="path1"
   style="fill:#ffffff;stroke:#000000;stroke-width:0.189448" />&#10;<text
   xml:space="preserve"
   style="font-size:55.2393px;fill:#ffffff;stroke:#000000;stroke-width:0.414295"
   x="43.946709"
   y="55.79969"
   id="text1"><tspan
     sodipodi:role="line"
     id="tspan1"
     style="font-style:normal;font-variant:normal;font-weight:normal;font-stretch:normal;font-size:55.2393px;font-family:'Reem Kufi';-inkscape-font-specification:'Reem Kufi';fill:#ffffff;stroke:#000000;stroke-width:0.414295"
     x="43.946709"
     y="55.79969">لغة الضاد</tspan></text></svg>
